<?xml version="1.0" standalone="no"?>
<!DOCTYPE svg PUBLIC "-//W3C//DTD SVG 20010904//EN"
 "http://www.w3.org/TR/2001/REC-SVG-20010904/DTD/svg10.dtd">
<svg version="1.0" xmlns="http://www.w3.org/2000/svg"
 width="1024.000000pt" height="1024.000000pt" viewBox="0 0 1024.000000 1024.000000"
 preserveAspectRatio="xMidYMid meet">

<g transform="translate(0.000000,1024.000000) scale(0.100000,-0.100000)"
fill="#000000" stroke="none">
<path d="M5203 9252 c-49 -8 -53 -29 -53 -273 0 -261 1 -265 82 -275 41 -6 49
-3 72 19 l26 26 0 229 c0 216 -1 229 -20 250 -12 12 -28 22 -38 23 -9 0 -24 2
-32 3 -8 1 -25 0 -37 -2z"/>
<path d="M4921 9214 c-20 -25 -21 -39 -21 -248 0 -258 2 -266 74 -266 77 0 77
3 74 275 -3 221 -4 238 -22 251 -33 23 -82 18 -105 -12z"/>
<path d="M5441 9214 c-20 -25 -21 -39 -21 -248 0 -210 1 -223 20 -244 26 -28
90 -30 113 -4 15 16 17 49 17 254 0 215 -2 236 -18 251 -30 27 -87 22 -111 -9z"/>
<path d="M4687 9210 c-55 -17 -56 -24 -57 -286 0 -186 3 -244 13 -252 22 -18
118 -2 150 26 15 13 17 38 17 234 0 131 -4 227 -10 239 -10 18 -60 50 -77 48
-4 0 -21 -5 -36 -9z"/>
<path d="M5685 9195 l-25 -24 0 -223 c1 -160 4 -227 13 -238 29 -36 129 -54
155 -28 9 9 12 78 12 250 l0 239 -25 24 c-18 19 -35 25 -65 25 -30 0 -47 -6
-65 -25z"/>
<path d="M4413 9152 c-22 -2 -39 -12 -53 -32 -19 -26 -20 -43 -20 -259 0 -230
0 -231 23 -246 20 -13 30 -13 77 -1 30 8 59 21 66 30 8 12 10 78 6 244 -5 268
-7 273 -99 264z"/>
<path d="M5978 9140 l-28 -21 0 -227 c0 -125 4 -232 8 -239 10 -16 58 -34 105
-40 67 -9 67 -8 67 253 0 227 -1 234 -23 259 -31 37 -93 44 -129 15z"/>
<path d="M4119 9069 c-47 -18 -50 -36 -47 -299 3 -241 3 -245 24 -248 30 -4
136 34 152 55 9 12 12 76 12 233 0 214 0 217 -24 239 -27 25 -80 35 -117 20z"/>
<path d="M6263 9070 c-12 -5 -26 -18 -32 -29 -12 -22 -15 -439 -3 -457 24 -36
156 -69 173 -43 13 21 11 463 -2 493 -18 39 -85 56 -136 36z"/>
<path d="M3549 8831 l-24 -19 0 -266 c0 -173 4 -269 11 -276 14 -14 95 14 122
43 20 21 21 35 23 261 2 238 2 239 -21 258 -29 23 -81 23 -111 -1z"/>
<path d="M6810 8830 c-19 -19 -20 -31 -18 -257 l3 -236 37 -30 c25 -20 49 -30
75 -31 l38 -1 3 263 2 263 -24 24 c-32 32 -87 34 -116 5z"/>
<path d="M3810 8658 c-18 -19 -20 -35 -20 -139 0 -69 4 -120 10 -124 6 -4 42
8 80 26 l70 32 0 87 c0 73 -3 92 -21 114 -27 34 -88 37 -119 4z"/>
<path d="M6552 8673 c-23 -9 -38 -57 -41 -129 -2 -57 1 -73 16 -86 25 -23 134
-67 150 -61 9 4 13 32 13 103 0 105 -12 155 -40 170 -19 10 -76 12 -98 3z"/>
<path d="M3290 8650 c-19 -19 -20 -33 -20 -274 0 -221 2 -255 16 -260 18 -7
68 17 102 47 22 20 22 25 22 243 l0 223 -26 20 c-34 26 -68 27 -94 1z"/>
<path d="M7092 8654 c-22 -15 -22 -19 -22 -244 l0 -228 42 -36 c44 -38 82 -46
92 -20 3 9 6 128 6 264 0 246 0 249 -22 264 -12 9 -34 16 -48 16 -14 0 -36 -7
-48 -16z"/>
<path d="M4950 8503 c-40 -4 -164 -23 -335 -52 -162 -28 -427 -113 -645 -207
-531 -229 -1021 -627 -1383 -1122 -87 -119 -230 -346 -270 -429 l-21 -43 -123
0 c-138 0 -165 -8 -188 -55 -22 -48 -19 -81 14 -117 28 -31 33 -33 119 -38
l90 -5 -31 -85 -32 -85 -55 3 c-30 2 -236 0 -458 -4 -400 -6 -404 -7 -430 -29
-39 -34 -36 -88 6 -126 l32 -29 711 0 c672 0 710 -1 705 -17 -38 -125 -66
-312 -66 -444 l0 -99 -632 0 -633 0 -51 -24 c-29 -13 -64 -40 -79 -60 -51 -68
-56 -113 -49 -531 3 -209 10 -401 16 -427 12 -57 74 -132 121 -147 21 -7 1309
-11 3937 -14 3804 -4 3906 -4 3955 15 61 23 94 51 119 103 26 56 39 308 32
647 -4 249 -6 271 -27 315 -25 54 -63 90 -117 109 -29 10 -175 13 -673 14
l-636 0 -7 123 c-7 140 -18 216 -48 340 -12 48 -19 89 -16 92 2 3 325 5 716 5
l711 1 30 25 c53 44 48 113 -9 144 -13 7 -171 11 -469 11 -338 1 -452 4 -460
13 -5 6 -24 49 -40 94 l-30 82 98 0 c88 0 99 2 118 23 30 32 38 79 18 116 -26
50 -59 61 -193 61 l-120 0 -77 136 c-116 204 -271 428 -390 563 -323 369 -665
633 -1090 841 -224 110 -499 211 -670 246 -79 16 -177 34 -215 40 -25 3 -54 8
-65 10 -97 19 -557 30 -715 17z m735 -207 c50 -9 129 -26 178 -38 l87 -22 0
-647 c0 -460 3 -655 11 -673 22 -47 97 -57 133 -17 14 15 16 92 18 652 3 628
3 634 23 631 46 -8 285 -109 420 -177 628 -320 1129 -819 1430 -1424 56 -112
125 -279 125 -303 0 -10 -41 -12 -194 -10 l-195 3 -11 37 c-25 79 -181 382
-248 480 -143 212 -321 410 -497 551 -160 129 -447 301 -573 345 -73 25 -132
-13 -132 -84 0 -49 18 -64 180 -142 304 -149 578 -370 772 -624 108 -141 278
-431 278 -474 0 -6 -39 -10 -105 -10 l-105 0 -49 103 c-92 196 -191 342 -332
491 -169 179 -512 410 -582 392 -68 -17 -92 -105 -39 -146 15 -12 41 -27 57
-34 50 -21 225 -139 315 -213 151 -123 295 -303 383 -479 60 -120 66 -110 -70
-117 -187 -8 -350 -72 -543 -212 -248 -181 -425 -368 -540 -573 l-24 -42 -99
0 c-93 0 -98 1 -92 20 11 35 85 164 121 209 41 53 44 92 9 126 -39 40 -92 35
-137 -12 -47 -48 -130 -188 -165 -275 l-26 -68 -79 0 c-92 0 -89 -15 -31 140
153 407 426 706 838 917 63 33 206 93 220 93 1 0 35 -41 75 -91 88 -110 121
-130 183 -109 31 11 47 25 62 52 l20 37 -21 43 c-48 97 -234 281 -384 378 -73
47 -116 49 -151 9 -39 -45 -16 -106 55 -144 34 -19 47 -35 27 -35 -13 0 -139
-60 -236 -113 -327 -177 -579 -433 -763 -776 l-50 -94 -16 37 c-25 60 -125
225 -185 306 -31 41 -94 115 -141 164 -168 175 -325 288 -575 413 -82 41 -151
76 -153 78 -2 2 13 11 32 20 55 26 89 72 82 109 -8 39 -39 66 -77 66 -58 0
-269 -160 -378 -286 -83 -97 -105 -134 -105 -178 -1 -30 6 -44 32 -67 65 -58
125 -32 219 93 78 104 60 102 232 24 199 -91 372 -210 524 -359 152 -149 236
-263 321 -435 42 -84 106 -254 106 -281 0 -7 -27 -11 -75 -11 l-76 0 -48 103
c-118 253 -200 330 -277 263 -41 -35 -38 -77 13 -151 42 -63 113 -192 113
-207 0 -4 -44 -8 -97 -7 l-98 0 -73 114 c-155 240 -463 512 -716 630 -132 62
-223 85 -340 85 -112 0 -109 -6 -53 105 113 229 277 413 533 602 14 11 45 29
146 85 98 55 109 66 110 105 1 40 -16 68 -52 83 -39 16 -70 5 -202 -73 -228
-134 -411 -304 -562 -521 -78 -113 -180 -298 -200 -363 -7 -22 -12 -23 -117
-23 -67 0 -109 4 -109 10 0 21 94 196 154 289 145 222 353 450 543 593 123 92
205 141 381 226 110 53 136 69 146 93 29 68 -14 134 -84 133 -29 -1 -77 -22
-182 -79 -304 -166 -489 -307 -681 -520 -214 -238 -371 -483 -472 -740 l-31
-80 -197 -3 -197 -2 31 86 c175 497 605 1034 1119 1399 230 163 592 348 798
409 l52 15 0 -628 c0 -602 1 -630 19 -652 14 -18 29 -24 61 -24 32 0 47 6 61
24 18 22 19 50 19 676 0 602 1 653 17 659 25 10 182 44 233 51 86 11 185 25
210 29 14 3 160 3 325 1 220 -2 324 -7 390 -19z m-2002 -2158 c90 -36 116 -57
117 -90 l0 -28 -397 -2 -398 -3 -3 -247 -2 -248 -116 0 -117 0 6 133 c6 143
30 273 78 424 l30 95 367 -4 367 -4 68 -26z m3920 -55 c43 -138 76 -309 83
-441 l7 -122 -121 0 -122 0 0 250 0 250 -397 2 -398 3 -3 27 c-3 22 4 31 40
52 24 13 77 34 118 45 68 18 108 20 420 20 l345 1 28 -87z m-4213 -360 c0 -71
3 -145 6 -165 l7 -38 -122 0 -121 0 0 165 0 165 115 0 115 0 0 -127z m410 -38
l0 -165 -125 0 -125 0 0 165 0 165 125 0 125 0 0 -165z m392 78 c78 -76 198
-220 198 -237 0 -3 -97 -6 -215 -6 l-215 0 0 165 0 165 71 0 72 0 89 -87z
m2318 -78 l0 -165 -226 0 c-177 0 -224 3 -218 13 37 60 78 109 169 205 l107
112 84 0 84 0 0 -165z m390 0 l0 -165 -120 0 -120 0 0 165 0 165 120 0 120 0
0 -165z m391 103 c0 -35 3 -109 5 -165 l5 -103 -120 0 -121 0 0 165 0 165 115
0 115 0 1 -62z m847 -539 c23 -7 42 -15 42 -18 0 -3 -6 -26 -14 -51 -15 -50
-11 -49 -117 -30 -89 17 -151 7 -193 -31 -45 -39 -59 -95 -54 -216 6 -161 48
-206 188 -201 l75 3 3 78 3 77 -61 0 -60 0 0 60 0 60 120 0 120 0 0 -174 0
-174 -52 -19 c-39 -13 -83 -18 -163 -18 -101 0 -114 2 -162 27 -58 31 -96 74
-118 137 -20 57 -21 269 -1 335 26 87 86 141 183 166 48 12 207 6 261 -11z
m-1541 -17 c51 -27 100 -85 114 -136 6 -21 9 -105 7 -190 -3 -150 -4 -154 -33
-201 -21 -33 -47 -57 -85 -79 -50 -28 -63 -31 -145 -31 -82 0 -95 3 -145 31
-38 22 -64 46 -85 79 l-30 48 0 171 c0 154 2 175 21 210 24 47 77 92 130 112
58 21 197 14 251 -14z m-4887 -307 l0 -315 -60 0 -60 0 0 315 0 315 60 0 60 0
0 -315z m352 125 l143 -190 3 190 2 190 60 0 60 0 0 -315 0 -315 -42 1 -43 0
-147 196 -148 196 0 -197 0 -196 -60 0 -60 0 0 315 0 315 45 0 45 0 142 -190z
m553 -20 c38 -115 72 -210 76 -210 3 0 40 94 80 210 l74 210 64 0 c46 0 62 -3
59 -12 -3 -7 -54 -149 -113 -315 l-108 -303 -58 0 -57 0 -22 63 c-41 120 -190
561 -190 564 0 2 28 3 63 3 l63 0 69 -210z m863 153 l-3 -58 -152 -3 -153 -3
0 -64 0 -65 140 0 140 0 0 -55 0 -55 -140 0 -140 0 0 -75 0 -75 155 0 155 0 0
-60 0 -60 -215 0 -215 0 0 315 0 315 215 0 216 0 -3 -57z m354 -133 l143 -190
3 190 2 190 60 0 60 0 0 -315 0 -315 -42 1 -43 0 -147 196 -148 196 0 -197 0
-196 -60 0 -60 0 0 315 0 315 45 0 45 0 142 -190z m858 130 l0 -60 -95 0 -95
0 0 -255 0 -255 -60 0 -60 0 0 255 0 255 -95 0 -95 0 0 60 0 60 250 0 250 0 0
-60z m432 -240 c59 -162 110 -303 114 -312 5 -16 -2 -18 -55 -18 l-60 0 -22
60 -22 61 -125 -3 -126 -3 -22 -55 -22 -55 -62 -3 c-48 -2 -61 0 -57 10 2 7
55 139 117 293 62 154 116 290 121 303 8 21 14 23 61 20 l53 -3 107 -295z
m601 276 c54 -26 89 -84 95 -152 7 -88 -26 -154 -102 -199 -15 -9 -8 -24 58
-128 42 -65 76 -120 76 -123 0 -2 -31 -4 -69 -4 l-69 0 -72 115 -72 115 -59 0
-59 0 0 -115 0 -115 -60 0 -60 0 0 316 0 315 178 -3 c150 -3 183 -6 215 -22z
m337 -291 l0 -315 -60 0 -60 0 0 315 0 315 60 0 60 0 0 -315z m1432 15 c59
-162 110 -303 114 -312 5 -16 -2 -18 -55 -18 l-60 0 -22 60 -22 61 -125 -3
-126 -3 -22 -55 -22 -55 -62 -3 c-48 -2 -61 0 -57 10 2 7 55 139 117 293 62
154 116 290 121 303 8 21 14 23 61 20 l53 -3 107 -295z m928 -15 l0 -315 -60
0 -60 0 0 315 0 315 60 0 60 0 0 -315z m250 60 l0 -255 150 0 150 0 0 -60 0
-60 -210 0 -210 0 0 315 0 315 60 0 60 0 0 -255z"/>
<path d="M5195 8127 c-11 -8 -108 -59 -215 -114 -108 -55 -221 -115 -252 -132
l-57 -32 1 -384 1 -385 76 -43 c42 -24 165 -97 275 -161 109 -64 203 -116 209
-116 6 0 40 17 76 39 182 106 313 182 376 216 117 64 105 14 105 450 0 294 -3
385 -12 393 -24 19 -536 282 -550 282 -7 0 -22 -6 -33 -13z m208 -252 c133
-71 146 -81 130 -93 -10 -7 -76 -43 -148 -79 -71 -36 -134 -69 -139 -73 -4 -5
-29 4 -55 19 -25 15 -95 53 -154 85 -60 32 -105 62 -100 66 4 5 67 39 138 76
72 37 134 71 140 76 16 14 32 8 188 -77z m-363 -330 c100 -58 185 -105 189
-105 5 0 86 41 182 91 96 50 184 95 197 100 l22 9 -2 -231 -3 -231 -165 -92
c-91 -50 -179 -100 -196 -110 l-31 -19 -119 68 c-66 37 -156 90 -201 117 l-83
49 0 230 c0 190 2 229 14 229 8 0 96 -47 196 -105z"/>
<path d="M4659 6841 c-32 -32 -37 -65 -14 -98 8 -11 61 -51 117 -89 138 -91
293 -246 382 -381 90 -137 93 -137 187 3 111 166 283 332 431 417 66 38 78 53
78 96 0 74 -73 103 -152 61 -133 -71 -313 -225 -400 -342 -28 -38 -52 -68 -53
-68 -1 0 -20 26 -43 58 -57 80 -181 197 -292 274 -160 110 -191 119 -241 69z"/>
<path d="M4153 6428 c-16 -42 -26 -55 -49 -62 -45 -13 -74 -29 -74 -38 0 -8
43 -30 83 -42 10 -3 27 -28 39 -56 11 -27 26 -50 34 -50 7 0 20 20 29 45 19
49 36 67 67 72 27 4 58 22 58 34 0 9 -10 14 -76 39 -24 9 -34 21 -45 58 -21
65 -41 65 -66 0z"/>
<path d="M6254 6463 c-17 -59 -41 -88 -84 -104 -25 -9 -45 -23 -45 -30 0 -7
20 -21 45 -30 47 -17 52 -22 75 -81 9 -21 20 -38 26 -38 5 0 21 24 33 53 22
48 28 53 70 65 35 9 46 17 46 32 0 13 -9 21 -27 26 -58 12 -70 22 -89 73 -18
51 -40 66 -50 34z"/>
<path d="M6383 5129 c-64 -32 -75 -65 -71 -214 3 -136 14 -165 74 -194 42 -21
120 -18 153 6 49 36 61 77 61 201 0 141 -12 175 -72 202 -55 25 -93 25 -145
-1z"/>
<path d="M4917 4962 c-21 -53 -37 -100 -37 -104 0 -9 150 -11 150 -3 0 11 -63
190 -69 197 -4 4 -23 -36 -44 -90z"/>
<path d="M5450 5040 l0 -80 99 0 c121 0 146 13 146 80 0 67 -25 80 -146 80
l-99 0 0 -80z"/>
<path d="M7287 4962 c-21 -53 -37 -100 -37 -104 0 -9 150 -11 150 -3 0 11 -63
190 -69 197 -4 4 -23 -36 -44 -90z"/>
<path d="M2944 8276 c-56 -48 -33 -106 101 -250 48 -52 68 -55 123 -20 28 18
55 78 48 102 -3 9 -43 56 -88 105 -75 79 -86 87 -120 87 -24 0 -46 -8 -64 -24z"/>
<path d="M7377 8248 c-28 -29 -66 -77 -85 -105 -32 -49 -34 -55 -22 -83 32
-76 99 -91 153 -32 104 112 127 143 127 173 0 60 -35 98 -89 99 -29 0 -43 -9
-84 -52z"/>
<path d="M2719 8081 c-21 -21 -29 -39 -29 -65 0 -52 13 -74 94 -154 63 -62 78
-72 109 -72 43 0 92 38 100 77 8 41 -14 79 -97 166 -66 69 -78 77 -111 77 -27
0 -44 -8 -66 -29z"/>
<path d="M7650 8103 c-17 -7 -117 -113 -142 -152 -29 -43 -23 -88 16 -127 52
-52 75 -47 163 39 41 39 82 85 90 101 19 36 10 86 -21 115 -24 22 -79 35 -106
24z"/>
<path d="M2484 7935 c-12 -8 -27 -28 -33 -44 -19 -44 5 -83 113 -190 86 -84
96 -91 133 -91 41 0 59 13 82 57 17 33 -1 61 -116 181 -82 86 -103 102 -128
102 -17 0 -40 -7 -51 -15z"/>
<path d="M7843 7878 c-99 -96 -153 -164 -153 -194 0 -38 42 -74 86 -74 34 0
47 9 140 104 102 103 122 135 109 176 -8 24 -60 60 -89 60 -10 0 -52 -33 -93
-72z"/>
<path d="M2159 7728 c-36 -22 -59 -72 -52 -111 4 -20 42 -64 117 -137 157
-154 180 -170 232 -170 80 0 137 78 98 138 -22 35 -283 292 -298 293 -48 6
-71 3 -97 -13z"/>
<path d="M8205 7736 c-40 -18 -267 -253 -284 -293 -16 -40 -8 -77 24 -109 33
-33 110 -34 151 -2 68 52 244 235 259 268 15 33 15 40 2 73 -26 60 -95 89
-152 63z"/>
<path d="M8343 7462 c-27 -4 -277 -242 -299 -283 -8 -15 -14 -44 -14 -63 0
-32 13 -49 138 -175 122 -125 141 -140 179 -146 28 -4 50 -2 70 9 38 20 268
248 287 284 30 58 19 75 -142 235 -131 130 -159 148 -219 139z m111 -239 c44
-43 81 -83 81 -89 0 -16 -152 -174 -168 -174 -7 0 -51 38 -97 85 l-85 86 86
84 c47 47 90 85 94 85 4 0 44 -35 89 -77z"/>
<path d="M8316 7171 l-47 -48 51 -43 52 -43 38 44 c22 24 39 46 40 49 0 3 -19
25 -43 48 l-43 42 -48 -49z"/>
<path d="M1937 7353 c-186 -181 -196 -194 -183 -246 7 -31 267 -288 308 -305
65 -27 92 -12 227 126 129 133 156 175 146 223 -8 35 -248 283 -289 299 -15 5
-43 10 -62 10 -31 0 -48 -12 -147 -107z m263 -138 l84 -85 -79 -83 c-44 -47
-84 -85 -90 -85 -5 -1 -50 37 -100 83 l-90 84 85 85 c46 47 89 86 95 86 6 0
48 -38 95 -85z"/>
<path d="M2056 7174 l-40 -45 47 -47 c25 -25 48 -44 49 -41 2 2 21 23 43 47
l39 42 -44 45 c-24 25 -47 45 -50 44 -3 0 -23 -21 -44 -45z"/>
<path d="M1253 6666 c-45 -20 -64 -55 -62 -111 2 -39 8 -51 41 -81 l39 -35
254 3 c252 3 254 3 279 27 56 52 52 141 -7 185 -27 20 -42 21 -270 23 -191 2
-249 0 -274 -11z"/>
<path d="M8710 6670 c-53 -13 -80 -51 -80 -113 1 -54 16 -84 57 -106 15 -7
102 -11 268 -11 271 0 291 4 320 60 27 53 20 98 -24 141 l-39 39 -233 -1
c-129 -1 -250 -5 -269 -9z"/>
<path d="M1201 5864 c-35 -29 -39 -59 -16 -104 24 -46 62 -52 327 -48 l238 3
26 26 c36 37 36 94 -1 126 -26 23 -30 23 -285 23 l-258 0 -31 -26z"/>
<path d="M2058 5860 c-26 -27 -29 -35 -23 -67 12 -67 61 -88 191 -81 71 3 78
6 105 36 37 41 37 76 0 113 -29 28 -32 29 -136 29 -105 0 -107 0 -137 -30z"/>
<path d="M8129 5861 c-45 -46 -33 -107 26 -136 39 -18 166 -21 198 -4 47 24
69 77 51 124 -12 31 -59 45 -154 45 -88 0 -93 -1 -121 -29z"/>
<path d="M8665 5878 c-43 -25 -58 -75 -34 -120 23 -42 63 -48 329 -48 280 0
307 5 329 59 11 25 11 37 1 61 -25 59 -28 60 -330 60 -188 -1 -281 -4 -295
-12z"/>
<path d="M1223 4108 c-11 -5 -29 -25 -39 -44 -17 -31 -17 -35 -1 -69 29 -61
49 -65 367 -65 305 0 333 4 366 55 27 41 22 84 -12 112 l-29 23 -315 -1 c-197
0 -323 -4 -337 -11z"/>
<path d="M8585 4111 c-55 -23 -66 -94 -22 -138 36 -36 83 -41 390 -42 274 -1
303 3 327 48 17 33 11 78 -14 108 l-24 28 -319 2 c-175 1 -327 -2 -338 -6z"/>
<path d="M2878 4038 c-16 -5 -28 -15 -28 -20 0 -31 155 -263 204 -306 l37 -32
2142 0 2142 0 36 29 c40 33 118 143 170 239 l34 63 -24 20 c-23 19 -67 19
-2355 18 -1534 0 -2340 -4 -2358 -11z m2375 -98 c3 -12 14 -20 26 -20 18 0 21
-6 21 -40 0 -36 -2 -40 -26 -40 -20 0 -25 -4 -20 -16 4 -9 1 -23 -5 -30 -15
-18 -39 -1 -39 27 0 12 -7 19 -20 19 -32 0 -27 56 8 91 32 34 48 36 55 9z
m-1103 -64 c0 -45 -14 -68 -36 -59 -17 6 -19 94 -2 111 19 19 38 -6 38 -52z
m-1022 0 c3 -50 -8 -69 -35 -59 -8 3 -13 22 -13 52 0 52 6 63 30 59 10 -2 16
-18 18 -52z m208 30 c10 -41 1 -81 -20 -84 -23 -5 -36 14 -36 54 0 51 44 76
56 30z m202 -10 c6 -45 -6 -76 -28 -76 -17 0 -20 7 -20 48 0 27 3 52 7 56 15
15 38 0 41 -28z m197 -21 c0 -44 -3 -50 -22 -53 -21 -3 -23 1 -23 46 0 53 6
64 30 60 11 -3 15 -16 15 -53z m203 38 c23 -46 -4 -117 -35 -91 -14 11 -17 65
-7 92 8 21 31 20 42 -1z m418 -7 c10 -41 1 -81 -20 -84 -10 -2 -22 2 -27 10
-10 15 -12 60 -3 82 10 25 43 19 50 -8z m202 -34 c3 -51 2 -53 -20 -50 -17 2
-24 11 -26 32 -5 45 6 78 26 74 13 -2 18 -16 20 -56z m207 3 c0 -44 -3 -50
-22 -53 -22 -3 -23 0 -23 53 0 53 1 56 23 53 19 -3 22 -9 22 -53z m203 -3 c3
-50 2 -52 -22 -52 -24 0 -26 3 -26 48 0 53 6 64 30 60 11 -2 16 -18 18 -56z
m568 43 c-19 -14 -19 -16 -2 -28 12 -9 17 -23 14 -42 -2 -24 -8 -30 -28 -30
-23 0 -25 4 -28 58 l-3 57 33 0 c31 -1 32 -1 14 -15z m202 -43 c3 -51 2 -53
-20 -50 -19 2 -24 10 -26 42 -4 49 3 68 25 64 14 -2 19 -15 21 -56z m206 42
c9 -22 7 -67 -3 -82 -5 -8 -17 -12 -27 -10 -14 2 -20 13 -22 42 -2 21 -1 44 2
52 7 19 42 18 50 -2z m200 0 c16 -42 3 -94 -25 -94 -11 0 -19 7 -20 18 0 9 -2
26 -4 37 -6 31 4 55 25 55 10 0 21 -7 24 -16z m204 -32 c3 -47 -11 -74 -34
-65 -15 5 -21 93 -7 107 19 19 38 -1 41 -42z m202 29 c14 -27 13 -64 -4 -86
-12 -16 -16 -17 -30 -6 -16 13 -21 65 -10 95 8 22 31 20 44 -3z m205 -36 c0
-41 -3 -50 -19 -53 -22 -5 -36 14 -36 50 0 42 10 59 34 56 18 -3 21 -10 21
-53z m200 0 c0 -43 -3 -50 -20 -50 -16 0 -21 8 -23 39 -4 49 3 68 25 64 14 -3
18 -14 18 -53z m210 0 c0 -44 -3 -50 -22 -53 -21 -3 -23 1 -23 46 0 53 6 64
30 60 11 -3 15 -16 15 -53z m208 34 c5 -9 7 -32 3 -52 -6 -31 -11 -37 -31 -37
-22 0 -25 4 -25 39 0 22 3 47 6 56 8 19 33 16 47 -6z"/>
<path d="M5212 3880 c5 -23 38 -25 38 -3 0 12 -7 19 -20 19 -13 0 -20 -6 -18
-16z"/>
<path d="M5512 3849 c2 -6 8 -10 13 -10 5 0 11 4 13 10 2 6 -4 11 -13 11 -9 0
-15 -5 -13 -11z"/>
<path d="M2023 3850 c-31 -13 -63 -68 -63 -108 0 -24 9 -42 29 -63 l29 -29
169 0 c190 0 205 4 224 68 16 54 -8 107 -55 127 -40 17 -295 20 -333 5z"/>
<path d="M8108 3844 c-62 -33 -72 -118 -21 -169 26 -25 27 -25 200 -25 l174 0
24 26 c14 15 26 33 26 40 3 33 3 41 -4 71 -4 22 -17 40 -39 53 -29 18 -50 20
-183 20 -113 -1 -157 -4 -177 -16z"/>
<path d="M1222 3745 c-35 -29 -44 -62 -26 -103 23 -57 37 -60 296 -65 250 -4
285 0 307 42 21 38 13 90 -18 122 l-29 29 -250 0 -250 0 -30 -25z"/>
<path d="M8719 3759 c-46 -17 -68 -83 -43 -131 26 -49 54 -54 321 -48 l243 5
25 26 c46 45 28 127 -32 150 -32 12 -478 10 -514 -2z"/>
<path d="M5195 3580 c-27 -9 -90 -29 -140 -44 -49 -16 -108 -34 -130 -40 l-40
-13 -3 -281 -2 -282 22 -9 c13 -5 102 -35 198 -65 l175 -56 207 68 208 67 -3
280 -2 279 -30 8 c-16 4 -103 28 -193 53 -195 55 -204 56 -267 35z m244 -91
l119 -34 -91 -32 c-137 -49 -173 -51 -292 -15 -55 17 -115 33 -133 37 -18 4
-31 9 -29 11 2 3 56 20 118 39 132 40 142 40 308 -6z m191 -308 l0 -199 -142
-47 c-79 -26 -149 -50 -156 -53 -10 -3 -12 38 -10 198 l3 202 145 49 c80 27
148 49 153 49 4 0 7 -90 7 -199z m-508 -204 c-2 -29 -6 -53 -7 -55 -4 -5 -125
28 -147 40 -14 7 -18 21 -18 62 0 29 2 55 5 58 3 3 43 -8 89 -24 l83 -29 -5
-52z"/>
<path d="M4980 3017 c0 -13 74 -47 102 -47 20 0 5 32 -19 41 -54 20 -83 23
-83 6z"/>
<path d="M4230 3562 c-47 -16 -124 -39 -172 -52 l-88 -23 0 -141 c0 -78 -3
-178 -6 -224 -8 -115 -5 -123 58 -145 29 -11 108 -39 176 -63 67 -24 132 -45
145 -46 24 -2 70 11 269 75 l127 41 3 248 3 249 -40 10 c-22 6 -103 29 -180
51 -77 23 -156 43 -175 45 -20 1 -71 -9 -120 -25z m210 -61 c36 -10 88 -24
115 -31 28 -7 54 -15 59 -18 5 -3 -43 -22 -105 -44 l-114 -39 -135 40 c-74 22
-144 41 -155 44 -14 2 -6 7 25 17 25 7 79 23 120 35 81 24 91 24 190 -4z m240
-289 l0 -179 -54 -12 c-29 -6 -97 -27 -150 -46 l-96 -34 0 178 0 179 43 11
c23 7 48 15 55 17 9 4 12 -9 12 -49 l0 -55 58 17 57 17 3 50 c2 36 9 53 25 66
45 36 47 30 47 -160z m-128 94 c2 -17 -2 -31 -9 -33 -9 -3 -13 8 -13 38 0 47
16 43 22 -5z m-427 -140 l70 -23 3 -62 c3 -72 1 -73 -96 -40 l-62 21 0 64 c0
35 3 64 8 64 4 -1 39 -11 77 -24z"/>
<path d="M4070 3115 c0 -16 7 -24 28 -29 15 -3 37 -8 50 -12 17 -5 22 -2 22
13 0 14 -13 23 -50 35 l-50 16 0 -23z"/>
<path d="M6100 3564 c-41 -14 -122 -37 -180 -53 l-105 -28 -3 -234 c-2 -178 1
-239 10 -251 12 -14 336 -128 366 -128 7 0 52 15 100 33 48 19 129 49 180 67
l92 33 -2 240 -3 241 -100 27 c-55 14 -137 38 -183 53 -46 14 -86 26 -90 25
-4 0 -41 -12 -82 -25z m218 -75 c59 -17 111 -35 115 -39 4 -4 -18 -13 -50 -19
-54 -12 -65 -11 -138 13 -44 13 -100 31 -125 38 l-44 13 39 11 c61 19 86 17
203 -17z m-208 -58 c83 -28 110 -41 97 -46 -10 -4 -39 -5 -65 -1 -54 7 -212
58 -212 68 0 4 12 9 28 11 15 2 29 5 32 6 3 0 57 -16 120 -38z m-151 -63 c25
-6 49 -14 54 -17 4 -4 8 -30 8 -57 2 -50 2 -51 40 -61 l39 -10 0 48 c0 52 10
60 43 35 15 -12 17 -33 17 -185 0 -94 -3 -171 -7 -171 -4 0 -67 21 -140 47
l-133 48 0 174 c0 156 2 173 16 167 9 -4 37 -11 63 -18z m541 -137 l0 -158
-72 -22 c-40 -11 -76 -21 -80 -21 -5 0 -8 71 -8 158 l0 159 73 21 c39 11 75
21 80 21 4 1 7 -70 7 -158z"/>
<path d="M2013 3486 c-22 -19 -28 -32 -28 -66 0 -35 6 -47 33 -71 l32 -29 203
0 202 0 29 -41 c84 -119 257 -329 360 -436 111 -116 294 -279 408 -365 115
-86 354 -232 495 -302 361 -180 653 -268 1103 -335 169 -25 572 -28 755 -7
389 46 745 151 1080 318 318 159 489 274 765 517 164 143 344 344 485 539 l80
111 206 0 207 1 31 29 c42 39 44 100 5 136 l-27 25 -263 0 -263 0 -59 -87
c-223 -332 -542 -650 -887 -885 -303 -207 -625 -352 -980 -442 -55 -14 -113
-27 -130 -30 -16 -3 -72 -12 -123 -21 -195 -33 -523 -44 -742 -25 -228 21
-537 85 -738 154 -504 173 -1000 498 -1337 877 -104 117 -218 263 -290 372
l-58 87 -263 0 -263 0 -28 -24z"/>
<path d="M1448 3404 c-46 -25 -62 -82 -37 -137 20 -44 41 -49 213 -48 l161 1
28 30 c31 35 35 75 12 120 -8 16 -24 34 -34 40 -32 16 -311 12 -343 -6z"/>
<path d="M8680 3407 c-14 -7 -33 -29 -43 -50 -15 -31 -17 -43 -7 -71 21 -65
30 -68 212 -66 182 1 198 6 218 65 14 44 1 85 -38 115 -22 18 -41 20 -171 20
-96 0 -155 -5 -171 -13z"/>
<path d="M2173 3213 c-18 -10 -93 -77 -166 -149 -133 -131 -155 -162 -138
-205 7 -19 241 -263 285 -297 31 -24 75 -28 109 -11 25 13 185 157 264 237 42
43 53 60 53 87 0 41 -13 57 -166 208 -154 151 -178 164 -241 130z m123 -224
c108 -102 107 -84 12 -183 -46 -47 -88 -86 -93 -86 -13 0 -175 162 -175 176 0
20 170 165 184 157 8 -5 40 -33 72 -64z"/>
<path d="M2169 2934 l-43 -44 47 -47 47 -48 44 50 c48 55 48 56 -14 105 l-37
29 -44 -45z"/>
<path d="M8222 3222 c-14 -2 -86 -65 -173 -150 -141 -139 -149 -149 -149 -185
0 -21 5 -47 10 -57 6 -11 76 -80 157 -155 154 -142 166 -149 230 -124 38 14
300 280 309 313 11 45 -14 82 -143 206 -160 155 -172 163 -241 152z m129 -244
c43 -45 79 -84 79 -88 0 -3 -38 -43 -85 -90 l-85 -85 -85 85 c-47 47 -85 90
-85 96 0 14 158 164 172 164 5 0 45 -37 89 -82z"/>
<path d="M8210 2935 l-45 -46 40 -39 c22 -21 46 -39 54 -40 8 0 31 18 52 41
l37 40 -42 45 c-23 24 -44 44 -47 44 -3 0 -25 -20 -49 -45z"/>
<path d="M3724 2692 c-11 -20 -34 -62 -52 -92 -29 -52 -30 -56 -14 -67 16 -9
25 0 72 84 43 76 50 97 39 104 -21 13 -22 12 -45 -29z"/>
<path d="M3806 2574 c-41 -79 -47 -97 -35 -105 22 -14 23 -13 55 52 l30 61 24
-89 c16 -57 30 -88 39 -88 8 0 33 40 57 92 38 83 41 94 26 102 -14 8 -22 0
-48 -51 l-31 -61 -18 74 c-19 78 -31 109 -43 109 -4 0 -29 -43 -56 -96z"/>
<path d="M6590 2660 c-12 -8 -7 -24 30 -100 25 -51 48 -94 52 -96 8 -5 91 35
123 60 15 11 17 17 8 27 -9 9 -22 6 -58 -16 -26 -15 -48 -25 -50 -23 -2 1 -22
38 -45 81 -23 42 -42 77 -43 77 -1 0 -9 -5 -17 -10z"/>
<path d="M6475 2599 c-7 -10 73 -199 84 -199 3 0 12 4 20 9 11 7 4 28 -32 105
-44 92 -58 109 -72 85z"/>
<path d="M7713 2600 c-26 -11 -43 -40 -43 -73 0 -23 55 -88 207 -244 41 -43
92 -46 128 -7 45 49 36 68 -96 202 -66 67 -127 122 -134 122 -7 0 -19 2 -27 4
-7 3 -23 1 -35 -4z"/>
<path d="M2586 2500 c-55 -55 -112 -116 -125 -135 -21 -31 -22 -38 -11 -65 15
-37 37 -50 82 -50 29 0 46 14 151 122 65 67 120 133 124 146 10 39 -26 76 -77
80 -42 3 -44 2 -144 -98z"/>
<path d="M4077 2478 c-11 -132 -10 -145 13 -151 15 -4 33 11 77 62 96 112 89
101 73 112 -12 7 -29 -5 -73 -53 l-59 -63 6 81 c5 69 4 83 -10 88 -8 3 -17 6
-18 6 -2 0 -6 -37 -9 -82z"/>
<path d="M6313 2530 c-57 -25 -71 -56 -54 -118 22 -85 68 -108 143 -73 72 33
71 32 49 84 -11 26 -22 47 -24 47 -3 0 -21 -7 -40 -15 -26 -11 -35 -19 -30
-31 4 -10 13 -14 28 -10 16 4 25 1 29 -11 9 -22 -4 -33 -46 -39 -42 -7 -64 11
-74 62 -8 42 13 70 60 82 34 9 49 42 19 42 -10 0 -37 -9 -60 -20z"/>
<path d="M4290 2374 c-18 -53 -28 -99 -24 -104 5 -4 39 -17 76 -28 59 -17 67
-18 73 -4 7 19 9 17 -50 35 -50 14 -63 30 -46 56 7 11 15 11 45 1 38 -12 66
-8 66 10 0 5 -20 15 -45 21 -53 13 -56 16 -44 46 8 22 9 22 56 8 61 -19 63
-19 63 3 0 12 -16 22 -60 35 -32 9 -63 17 -69 17 -5 0 -24 -43 -41 -96z"/>
<path d="M6051 2353 c-7 -54 -14 -106 -17 -115 -4 -13 0 -18 14 -18 13 0 22 9
26 24 9 37 100 63 112 32 4 -12 44 -12 44 0 0 15 -137 174 -151 174 -14 0 -19
-17 -28 -97z m89 -24 c0 -8 -50 -22 -56 -16 -2 1 -1 20 3 42 l6 38 24 -29 c12
-16 23 -32 23 -35z"/>
<path d="M4518 2308 c-22 -92 -23 -104 -9 -109 22 -9 31 -2 32 24 0 12 6 40
13 62 l12 40 37 -72 c20 -40 45 -77 56 -82 17 -10 20 -2 36 94 10 58 15 108
12 111 -16 17 -35 -9 -42 -55 -4 -28 -10 -53 -15 -56 -4 -2 -25 29 -45 70 -21
41 -44 75 -51 75 -8 0 -22 -40 -36 -102z"/>
<path d="M2845 2288 c-134 -134 -150 -175 -91 -234 27 -27 42 -34 73 -34 42 0
59 13 176 138 73 79 81 105 52 163 -17 33 -50 49 -97 49 -25 0 -46 -15 -113
-82z"/>
<path d="M4777 2348 c-4 -12 4 -18 30 -23 32 -6 35 -9 30 -33 -3 -15 -9 -55
-13 -89 -6 -59 -5 -63 14 -63 17 0 21 8 27 63 11 114 11 113 50 109 29 -4 35
-1 35 15 0 17 -11 20 -84 29 -76 8 -85 7 -89 -8z"/>
<path d="M5672 2355 c-49 -21 -56 -53 -36 -153 9 -46 108 -64 155 -29 30 23
38 50 28 102 -15 84 -69 114 -147 80z m97 -44 c16 -28 16 -87 2 -105 -16 -19
-74 -21 -88 -3 -20 24 -23 90 -6 109 22 24 79 24 92 -1z"/>
<path d="M7439 2341 c-46 -46 -41 -89 18 -154 112 -124 152 -157 186 -157 42
0 75 24 93 66 13 31 12 38 -3 68 -19 37 -153 180 -184 196 -35 19 -79 11 -110
-19z"/>
<path d="M5500 2303 c0 -21 3 -68 7 -105 5 -59 9 -68 26 -68 18 0 19 5 13 88
-9 105 -13 122 -32 122 -10 0 -14 -12 -14 -37z"/>
<path d="M5018 2234 c-26 -53 -45 -101 -42 -105 10 -16 33 -9 39 11 5 16 15
20 55 20 40 0 50 -4 55 -20 4 -11 15 -20 26 -20 16 0 19 5 14 19 -73 230 -79
234 -147 95z m72 27 c0 -5 3 -23 6 -40 6 -27 4 -31 -14 -31 -28 0 -34 12 -21
49 10 28 29 43 29 22z"/>
<path d="M5250 2220 c0 -103 1 -110 20 -110 17 0 20 7 20 39 0 28 5 41 17 46
17 6 32 -6 68 -58 8 -11 22 -17 34 -15 21 3 21 4 -5 40 -25 35 -26 39 -11 55
25 29 26 73 1 97 -11 11 -35 16 -80 16 l-64 0 0 -110z m114 64 c25 -25 4 -54
-39 -54 -33 0 -35 2 -35 35 0 32 2 35 29 35 16 0 37 -7 45 -16z"/>
<path d="M7199 2161 c-47 -47 -42 -60 66 -181 82 -92 105 -110 139 -110 43 0
86 39 86 77 0 34 -19 64 -86 135 -112 118 -150 133 -205 79z"/>
<path d="M3185 2172 c-26 -5 -54 -31 -131 -121 -72 -84 -80 -116 -39 -156 28
-29 70 -32 102 -10 41 29 173 195 173 219 0 40 -57 78 -105 68z"/>
<path d="M6995 2042 c-30 -6 -63 -41 -70 -73 -7 -32 23 -82 117 -191 44 -51
54 -58 86 -58 56 1 91 37 88 90 -2 30 -146 212 -179 227 -12 5 -31 7 -42 5z"/>
<path d="M3417 2019 c-14 -13 -55 -60 -91 -104 -51 -61 -66 -87 -66 -112 0
-44 38 -86 78 -86 39 0 49 8 139 116 59 71 73 94 73 121 0 44 -27 75 -71 82
-28 5 -41 1 -62 -17z"/>
<path d="M3635 1843 c-105 -139 -114 -156 -115 -201 0 -33 6 -49 25 -67 13
-14 30 -25 37 -26 7 0 22 -2 33 -4 11 -2 34 3 52 12 l33 15 -1 82 c-1 44 -4
120 -8 168 l-6 87 -50 -66z"/>
<path d="M6790 1741 l0 -160 27 -21 c59 -47 153 8 153 89 0 33 -11 53 -72 131
-96 122 -94 120 -102 120 -3 0 -6 -72 -6 -159z"/>
<path d="M3798 1869 c-16 -9 -18 -29 -18 -195 0 -114 4 -193 11 -206 11 -21
66 -48 96 -48 10 0 31 11 46 25 l27 26 0 170 c0 103 -4 178 -11 191 -21 38
-111 61 -151 37z"/>
<path d="M6592 1866 c-77 -20 -82 -34 -82 -223 l0 -165 29 -29 c18 -17 40 -29
56 -29 34 0 82 25 95 49 6 12 10 97 10 205 0 173 -1 186 -19 196 -23 12 -33
12 -89 -4z"/>
<path d="M4083 1774 c-19 -9 -18 -345 1 -382 37 -71 154 -70 171 1 3 12 4 94
3 182 l-3 160 -39 19 c-39 19 -111 30 -133 20z"/>
<path d="M6297 1766 c-90 -25 -91 -27 -83 -216 6 -161 6 -166 31 -187 37 -33
86 -30 127 6 l33 29 3 119 c2 65 0 150 -5 188 -7 65 -10 70 -33 72 -14 1 -46
-4 -73 -11z"/>
<path d="M4389 1707 c-24 -13 -24 -13 -27 -198 -2 -174 -1 -187 18 -212 23
-29 87 -45 118 -28 51 27 52 32 52 215 0 152 -2 175 -17 188 -43 37 -107 53
-144 35z"/>
<path d="M5971 1696 c-44 -25 -50 -50 -51 -222 l0 -161 27 -28 c25 -24 33 -27
77 -22 83 8 86 16 86 236 0 132 -4 191 -12 199 -16 16 -97 15 -127 -2z"/>
<path d="M4690 1620 c-18 -18 -20 -33 -20 -182 0 -90 4 -168 8 -175 4 -6 20
-18 35 -26 32 -17 104 -8 118 14 5 8 9 89 9 182 0 154 -2 169 -20 187 -14 14
-33 20 -65 20 -32 0 -51 -6 -65 -20z"/>
<path d="M5688 1632 c-24 -2 -42 -10 -47 -21 -6 -10 -11 -94 -12 -186 -1 -161
-1 -170 20 -186 28 -23 84 -22 110 2 20 19 21 30 21 193 0 202 -2 206 -92 198z"/>
<path d="M5483 1620 c-38 -15 -43 -41 -43 -213 0 -148 2 -166 19 -181 28 -26
80 -24 103 4 16 20 18 42 18 190 0 146 -2 169 -17 182 -25 22 -54 28 -80 18z"/>
<path d="M4912 1608 c-8 -8 -12 -65 -12 -189 0 -172 1 -178 22 -193 26 -18 61
-20 89 -6 18 10 19 23 19 195 0 172 -1 185 -19 195 -27 14 -84 13 -99 -2z"/>
<path d="M5098 1609 c-16 -9 -18 -29 -18 -194 l0 -184 28 -14 c34 -17 64 -16
85 2 15 12 17 38 17 195 0 128 -4 186 -12 194 -15 15 -76 15 -100 1z"/>
<path d="M5279 1599 c-20 -20 -21 -29 -17 -190 4 -182 8 -195 60 -204 16 -3
35 3 52 16 l26 20 0 173 c0 155 -2 175 -18 189 -26 24 -78 21 -103 -4z"/>
</g>
</svg>
